<svg width="2302" height="2283" xmlns="http://www.w3.org/2000/svg" xmlns:xlink="http://www.w3.org/1999/xlink" xml:space="preserve" overflow="hidden"><defs><clipPath id="clip0"><rect x="1049" y="96" width="2302" height="2283"/></clipPath><radialGradient cx="6378632" cy="0.5" r="8983599" fx="6378632" fy="0" gradientUnits="userSpaceOnUse" spreadMethod="pad" id="fill1" gradientTransform="matrix(0.000360892 0 0 0.000360892 1049 95.9999)"><stop offset="0" stop-color="#0377F7"/><stop offset="0.18" stop-color="#0097E2"/><stop offset="1" stop-color="#01E7FF"/></radialGradient></defs><g clip-path="url(#clip0)" transform="translate(-1049 -96)"><path d="M1049 476.507C1049 266.359 1219.36 95.9999 1429.51 95.9999L2970.49 95.9999C3180.64 95.9999 3351 266.359 3351 476.507L3351 1998.49C3351 2208.64 3180.64 2379 2970.49 2379L1429.51 2379C1219.36 2379 1049 2208.64 1049 1998.49Z" fill="url(#fill1)" fill-rule="evenodd"/><path d="M1049 463.477C1049 251.889 1212.67 95.9999 1424.21 95.9999 1544.06 605.505 1609.19 821.817 2006.53 1151.5 2210.25 1346.96 2817.51 1483.3 3136.69 1694.89 3318.86 1817.37 3344.7 1952.89 3351 2003.7 3351 2215.29 3175.61 2379 2964.07 2379L1432.02 2379C1220.49 2379 1049 2207.47 1049 1995.89L1049 463.477Z" fill="#0055FE" fill-rule="evenodd"/></g></svg>